<svg version="1" xmlns="http://www.w3.org/2000/svg" width="1365.333" height="1365.333" viewBox="0 0 1024.000000 1024.000000"><path d="M53.1 518.5V804h433.8v-52.4c.1-40.8-.2-52.5-1.2-52.8-.6-.3-69.9-.4-154-.4l-152.7.1v-4c-.1-14.7-.1-59.3 0-94.5v-41.5h276.5v-48.8c.1-32.7-.3-48.7-1-48.7-.5 0-62.8-.1-138.2-.1H179l-.1-41.5v-45.9-19.8l.1-15.2h150.4c133 0 150.5-.2 150.8-1.5.2-.8.3-24.5.3-52.5v-51l-213.7-.3-213.7-.2v285.5zM572.4 518.2l.1 285.3 202 .3 202 .2-.1-52c0-28.6-.4-52.4-.8-52.8-.4-.4-62.8-.7-138.6-.7-75.9-.1-138.2-.4-138.6-.7-.3-.4-.6-105.1-.6-232.8V233H572.3l.1 285.2z"/></svg>